<?xml version="1.0" encoding="utf-8" standalone="no"?>
<!DOCTYPE svg PUBLIC "-//W3C//DTD SVG 1.1//EN"
  "http://www.w3.org/Graphics/SVG/1.1/DTD/svg11.dtd">
<svg xmlns:xlink="http://www.w3.org/1999/xlink" width="720pt" height="576pt" viewBox="0 0 720 576" xmlns="http://www.w3.org/2000/svg" version="1.1">
 <metadata>
  <rdf:RDF xmlns:dc="http://purl.org/dc/elements/1.1/" xmlns:cc="http://creativecommons.org/ns#" xmlns:rdf="http://www.w3.org/1999/02/22-rdf-syntax-ns#">
   <cc:Work>
    <dc:type rdf:resource="http://purl.org/dc/dcmitype/StillImage"/>
    <dc:date>2024-04-30T14:18:45.655648</dc:date>
    <dc:format>image/svg+xml</dc:format>
    <dc:creator>
     <cc:Agent>
      <dc:title>Matplotlib v3.8.4, https://matplotlib.org/</dc:title>
     </cc:Agent>
    </dc:creator>
   </cc:Work>
  </rdf:RDF>
 </metadata>
 <defs>
  <style type="text/css">*{stroke-linejoin: round; stroke-linecap: butt}</style>
 </defs>
 <g id="figure_1">
  <g id="patch_1">
   <path d="M 0 576 
L 720 576 
L 720 0 
L 0 0 
z
" style="fill: #ffffff"/>
  </g>
  <g id="axes_1">
   <g id="patch_2">
    <path d="M 90 512.64 
L 648 512.64 
L 648 69.12 
L 90 69.12 
z
" style="fill: #ffffff"/>
   </g>
   <g id="matplotlib.axis_1">
    <g id="xtick_1">
     <g id="line2d_1">
      <defs>
       <path id="ma5058ff2c5" d="M 0 0 
L 0 3.5 
" style="stroke: #000000; stroke-width: 0.8"/>
      </defs>
      <g>
       <use xlink:href="#ma5058ff2c5" x="90" y="512.64" style="stroke: #000000; stroke-width: 0.8"/>
      </g>
     </g>
     <g id="text_1">
      <!-- 0.0 -->
      <g transform="translate(75.687187 533.317188) scale(0.18 -0.18)">
       <defs>
        <path id="DejaVuSans-30" d="M 2034 4250 
Q 1547 4250 1301 3770 
Q 1056 3291 1056 2328 
Q 1056 1369 1301 889 
Q 1547 409 2034 409 
Q 2525 409 2770 889 
Q 3016 1369 3016 2328 
Q 3016 3291 2770 3770 
Q 2525 4250 2034 4250 
z
M 2034 4750 
Q 2819 4750 3233 4129 
Q 3647 3509 3647 2328 
Q 3647 1150 3233 529 
Q 2819 -91 2034 -91 
Q 1250 -91 836 529 
Q 422 1150 422 2328 
Q 422 3509 836 4129 
Q 1250 4750 2034 4750 
z
" transform="scale(0.015625)"/>
        <path id="DejaVuSans-2e" d="M 684 794 
L 1344 794 
L 1344 0 
L 684 0 
L 684 794 
z
" transform="scale(0.015625)"/>
       </defs>
       <use xlink:href="#DejaVuSans-30"/>
       <use xlink:href="#DejaVuSans-2e" x="63.623047"/>
       <use xlink:href="#DejaVuSans-30" x="95.410156"/>
      </g>
     </g>
    </g>
    <g id="xtick_2">
     <g id="line2d_2">
      <g>
       <use xlink:href="#ma5058ff2c5" x="201.6" y="512.64" style="stroke: #000000; stroke-width: 0.8"/>
      </g>
     </g>
     <g id="text_2">
      <!-- 0.2 -->
      <g transform="translate(187.287188 533.317188) scale(0.18 -0.18)">
       <defs>
        <path id="DejaVuSans-32" d="M 1228 531 
L 3431 531 
L 3431 0 
L 469 0 
L 469 531 
Q 828 903 1448 1529 
Q 2069 2156 2228 2338 
Q 2531 2678 2651 2914 
Q 2772 3150 2772 3378 
Q 2772 3750 2511 3984 
Q 2250 4219 1831 4219 
Q 1534 4219 1204 4116 
Q 875 4013 500 3803 
L 500 4441 
Q 881 4594 1212 4672 
Q 1544 4750 1819 4750 
Q 2544 4750 2975 4387 
Q 3406 4025 3406 3419 
Q 3406 3131 3298 2873 
Q 3191 2616 2906 2266 
Q 2828 2175 2409 1742 
Q 1991 1309 1228 531 
z
" transform="scale(0.015625)"/>
       </defs>
       <use xlink:href="#DejaVuSans-30"/>
       <use xlink:href="#DejaVuSans-2e" x="63.623047"/>
       <use xlink:href="#DejaVuSans-32" x="95.410156"/>
      </g>
     </g>
    </g>
    <g id="xtick_3">
     <g id="line2d_3">
      <g>
       <use xlink:href="#ma5058ff2c5" x="313.2" y="512.64" style="stroke: #000000; stroke-width: 0.8"/>
      </g>
     </g>
     <g id="text_3">
      <!-- 0.4 -->
      <g transform="translate(298.887188 533.317188) scale(0.18 -0.18)">
       <defs>
        <path id="DejaVuSans-34" d="M 2419 4116 
L 825 1625 
L 2419 1625 
L 2419 4116 
z
M 2253 4666 
L 3047 4666 
L 3047 1625 
L 3713 1625 
L 3713 1100 
L 3047 1100 
L 3047 0 
L 2419 0 
L 2419 1100 
L 313 1100 
L 313 1709 
L 2253 4666 
z
" transform="scale(0.015625)"/>
       </defs>
       <use xlink:href="#DejaVuSans-30"/>
       <use xlink:href="#DejaVuSans-2e" x="63.623047"/>
       <use xlink:href="#DejaVuSans-34" x="95.410156"/>
      </g>
     </g>
    </g>
    <g id="xtick_4">
     <g id="line2d_4">
      <g>
       <use xlink:href="#ma5058ff2c5" x="424.8" y="512.64" style="stroke: #000000; stroke-width: 0.8"/>
      </g>
     </g>
     <g id="text_4">
      <!-- 0.6 -->
      <g transform="translate(410.487188 533.317188) scale(0.18 -0.18)">
       <defs>
        <path id="DejaVuSans-36" d="M 2113 2584 
Q 1688 2584 1439 2293 
Q 1191 2003 1191 1497 
Q 1191 994 1439 701 
Q 1688 409 2113 409 
Q 2538 409 2786 701 
Q 3034 994 3034 1497 
Q 3034 2003 2786 2293 
Q 2538 2584 2113 2584 
z
M 3366 4563 
L 3366 3988 
Q 3128 4100 2886 4159 
Q 2644 4219 2406 4219 
Q 1781 4219 1451 3797 
Q 1122 3375 1075 2522 
Q 1259 2794 1537 2939 
Q 1816 3084 2150 3084 
Q 2853 3084 3261 2657 
Q 3669 2231 3669 1497 
Q 3669 778 3244 343 
Q 2819 -91 2113 -91 
Q 1303 -91 875 529 
Q 447 1150 447 2328 
Q 447 3434 972 4092 
Q 1497 4750 2381 4750 
Q 2619 4750 2861 4703 
Q 3103 4656 3366 4563 
z
" transform="scale(0.015625)"/>
       </defs>
       <use xlink:href="#DejaVuSans-30"/>
       <use xlink:href="#DejaVuSans-2e" x="63.623047"/>
       <use xlink:href="#DejaVuSans-36" x="95.410156"/>
      </g>
     </g>
    </g>
    <g id="xtick_5">
     <g id="line2d_5">
      <g>
       <use xlink:href="#ma5058ff2c5" x="536.4" y="512.64" style="stroke: #000000; stroke-width: 0.8"/>
      </g>
     </g>
     <g id="text_5">
      <!-- 0.8 -->
      <g transform="translate(522.087188 533.317188) scale(0.18 -0.18)">
       <defs>
        <path id="DejaVuSans-38" d="M 2034 2216 
Q 1584 2216 1326 1975 
Q 1069 1734 1069 1313 
Q 1069 891 1326 650 
Q 1584 409 2034 409 
Q 2484 409 2743 651 
Q 3003 894 3003 1313 
Q 3003 1734 2745 1975 
Q 2488 2216 2034 2216 
z
M 1403 2484 
Q 997 2584 770 2862 
Q 544 3141 544 3541 
Q 544 4100 942 4425 
Q 1341 4750 2034 4750 
Q 2731 4750 3128 4425 
Q 3525 4100 3525 3541 
Q 3525 3141 3298 2862 
Q 3072 2584 2669 2484 
Q 3125 2378 3379 2068 
Q 3634 1759 3634 1313 
Q 3634 634 3220 271 
Q 2806 -91 2034 -91 
Q 1263 -91 848 271 
Q 434 634 434 1313 
Q 434 1759 690 2068 
Q 947 2378 1403 2484 
z
M 1172 3481 
Q 1172 3119 1398 2916 
Q 1625 2713 2034 2713 
Q 2441 2713 2670 2916 
Q 2900 3119 2900 3481 
Q 2900 3844 2670 4047 
Q 2441 4250 2034 4250 
Q 1625 4250 1398 4047 
Q 1172 3844 1172 3481 
z
" transform="scale(0.015625)"/>
       </defs>
       <use xlink:href="#DejaVuSans-30"/>
       <use xlink:href="#DejaVuSans-2e" x="63.623047"/>
       <use xlink:href="#DejaVuSans-38" x="95.410156"/>
      </g>
     </g>
    </g>
    <g id="xtick_6">
     <g id="line2d_6">
      <g>
       <use xlink:href="#ma5058ff2c5" x="648" y="512.64" style="stroke: #000000; stroke-width: 0.8"/>
      </g>
     </g>
     <g id="text_6">
      <!-- 1.0 -->
      <g transform="translate(633.687188 533.317188) scale(0.18 -0.18)">
       <defs>
        <path id="DejaVuSans-31" d="M 794 531 
L 1825 531 
L 1825 4091 
L 703 3866 
L 703 4441 
L 1819 4666 
L 2450 4666 
L 2450 531 
L 3481 531 
L 3481 0 
L 794 0 
L 794 531 
z
" transform="scale(0.015625)"/>
       </defs>
       <use xlink:href="#DejaVuSans-31"/>
       <use xlink:href="#DejaVuSans-2e" x="63.623047"/>
       <use xlink:href="#DejaVuSans-30" x="95.410156"/>
      </g>
     </g>
    </g>
    <g id="text_7">
     <!-- False Positive Rate -->
     <g transform="translate(285.360469 554.737813) scale(0.18 -0.18)">
      <defs>
       <path id="DejaVuSans-46" d="M 628 4666 
L 3309 4666 
L 3309 4134 
L 1259 4134 
L 1259 2759 
L 3109 2759 
L 3109 2228 
L 1259 2228 
L 1259 0 
L 628 0 
L 628 4666 
z
" transform="scale(0.015625)"/>
       <path id="DejaVuSans-61" d="M 2194 1759 
Q 1497 1759 1228 1600 
Q 959 1441 959 1056 
Q 959 750 1161 570 
Q 1363 391 1709 391 
Q 2188 391 2477 730 
Q 2766 1069 2766 1631 
L 2766 1759 
L 2194 1759 
z
M 3341 1997 
L 3341 0 
L 2766 0 
L 2766 531 
Q 2569 213 2275 61 
Q 1981 -91 1556 -91 
Q 1019 -91 701 211 
Q 384 513 384 1019 
Q 384 1609 779 1909 
Q 1175 2209 1959 2209 
L 2766 2209 
L 2766 2266 
Q 2766 2663 2505 2880 
Q 2244 3097 1772 3097 
Q 1472 3097 1187 3025 
Q 903 2953 641 2809 
L 641 3341 
Q 956 3463 1253 3523 
Q 1550 3584 1831 3584 
Q 2591 3584 2966 3190 
Q 3341 2797 3341 1997 
z
" transform="scale(0.015625)"/>
       <path id="DejaVuSans-6c" d="M 603 4863 
L 1178 4863 
L 1178 0 
L 603 0 
L 603 4863 
z
" transform="scale(0.015625)"/>
       <path id="DejaVuSans-73" d="M 2834 3397 
L 2834 2853 
Q 2591 2978 2328 3040 
Q 2066 3103 1784 3103 
Q 1356 3103 1142 2972 
Q 928 2841 928 2578 
Q 928 2378 1081 2264 
Q 1234 2150 1697 2047 
L 1894 2003 
Q 2506 1872 2764 1633 
Q 3022 1394 3022 966 
Q 3022 478 2636 193 
Q 2250 -91 1575 -91 
Q 1294 -91 989 -36 
Q 684 19 347 128 
L 347 722 
Q 666 556 975 473 
Q 1284 391 1588 391 
Q 1994 391 2212 530 
Q 2431 669 2431 922 
Q 2431 1156 2273 1281 
Q 2116 1406 1581 1522 
L 1381 1569 
Q 847 1681 609 1914 
Q 372 2147 372 2553 
Q 372 3047 722 3315 
Q 1072 3584 1716 3584 
Q 2034 3584 2315 3537 
Q 2597 3491 2834 3397 
z
" transform="scale(0.015625)"/>
       <path id="DejaVuSans-65" d="M 3597 1894 
L 3597 1613 
L 953 1613 
Q 991 1019 1311 708 
Q 1631 397 2203 397 
Q 2534 397 2845 478 
Q 3156 559 3463 722 
L 3463 178 
Q 3153 47 2828 -22 
Q 2503 -91 2169 -91 
Q 1331 -91 842 396 
Q 353 884 353 1716 
Q 353 2575 817 3079 
Q 1281 3584 2069 3584 
Q 2775 3584 3186 3129 
Q 3597 2675 3597 1894 
z
M 3022 2063 
Q 3016 2534 2758 2815 
Q 2500 3097 2075 3097 
Q 1594 3097 1305 2825 
Q 1016 2553 972 2059 
L 3022 2063 
z
" transform="scale(0.015625)"/>
       <path id="DejaVuSans-20" transform="scale(0.015625)"/>
       <path id="DejaVuSans-50" d="M 1259 4147 
L 1259 2394 
L 2053 2394 
Q 2494 2394 2734 2622 
Q 2975 2850 2975 3272 
Q 2975 3691 2734 3919 
Q 2494 4147 2053 4147 
L 1259 4147 
z
M 628 4666 
L 2053 4666 
Q 2838 4666 3239 4311 
Q 3641 3956 3641 3272 
Q 3641 2581 3239 2228 
Q 2838 1875 2053 1875 
L 1259 1875 
L 1259 0 
L 628 0 
L 628 4666 
z
" transform="scale(0.015625)"/>
       <path id="DejaVuSans-6f" d="M 1959 3097 
Q 1497 3097 1228 2736 
Q 959 2375 959 1747 
Q 959 1119 1226 758 
Q 1494 397 1959 397 
Q 2419 397 2687 759 
Q 2956 1122 2956 1747 
Q 2956 2369 2687 2733 
Q 2419 3097 1959 3097 
z
M 1959 3584 
Q 2709 3584 3137 3096 
Q 3566 2609 3566 1747 
Q 3566 888 3137 398 
Q 2709 -91 1959 -91 
Q 1206 -91 779 398 
Q 353 888 353 1747 
Q 353 2609 779 3096 
Q 1206 3584 1959 3584 
z
" transform="scale(0.015625)"/>
       <path id="DejaVuSans-69" d="M 603 3500 
L 1178 3500 
L 1178 0 
L 603 0 
L 603 3500 
z
M 603 4863 
L 1178 4863 
L 1178 4134 
L 603 4134 
L 603 4863 
z
" transform="scale(0.015625)"/>
       <path id="DejaVuSans-74" d="M 1172 4494 
L 1172 3500 
L 2356 3500 
L 2356 3053 
L 1172 3053 
L 1172 1153 
Q 1172 725 1289 603 
Q 1406 481 1766 481 
L 2356 481 
L 2356 0 
L 1766 0 
Q 1100 0 847 248 
Q 594 497 594 1153 
L 594 3053 
L 172 3053 
L 172 3500 
L 594 3500 
L 594 4494 
L 1172 4494 
z
" transform="scale(0.015625)"/>
       <path id="DejaVuSans-76" d="M 191 3500 
L 800 3500 
L 1894 563 
L 2988 3500 
L 3597 3500 
L 2284 0 
L 1503 0 
L 191 3500 
z
" transform="scale(0.015625)"/>
       <path id="DejaVuSans-52" d="M 2841 2188 
Q 3044 2119 3236 1894 
Q 3428 1669 3622 1275 
L 4263 0 
L 3584 0 
L 2988 1197 
Q 2756 1666 2539 1819 
Q 2322 1972 1947 1972 
L 1259 1972 
L 1259 0 
L 628 0 
L 628 4666 
L 2053 4666 
Q 2853 4666 3247 4331 
Q 3641 3997 3641 3322 
Q 3641 2881 3436 2590 
Q 3231 2300 2841 2188 
z
M 1259 4147 
L 1259 2491 
L 2053 2491 
Q 2509 2491 2742 2702 
Q 2975 2913 2975 3322 
Q 2975 3731 2742 3939 
Q 2509 4147 2053 4147 
L 1259 4147 
z
" transform="scale(0.015625)"/>
      </defs>
      <use xlink:href="#DejaVuSans-46"/>
      <use xlink:href="#DejaVuSans-61" x="48.394531"/>
      <use xlink:href="#DejaVuSans-6c" x="109.673828"/>
      <use xlink:href="#DejaVuSans-73" x="137.457031"/>
      <use xlink:href="#DejaVuSans-65" x="189.556641"/>
      <use xlink:href="#DejaVuSans-20" x="251.080078"/>
      <use xlink:href="#DejaVuSans-50" x="282.867188"/>
      <use xlink:href="#DejaVuSans-6f" x="339.544922"/>
      <use xlink:href="#DejaVuSans-73" x="400.726562"/>
      <use xlink:href="#DejaVuSans-69" x="452.826172"/>
      <use xlink:href="#DejaVuSans-74" x="480.609375"/>
      <use xlink:href="#DejaVuSans-69" x="519.818359"/>
      <use xlink:href="#DejaVuSans-76" x="547.601562"/>
      <use xlink:href="#DejaVuSans-65" x="606.78125"/>
      <use xlink:href="#DejaVuSans-20" x="668.304688"/>
      <use xlink:href="#DejaVuSans-52" x="700.091797"/>
      <use xlink:href="#DejaVuSans-61" x="767.324219"/>
      <use xlink:href="#DejaVuSans-74" x="828.603516"/>
      <use xlink:href="#DejaVuSans-65" x="867.8125"/>
     </g>
    </g>
   </g>
   <g id="matplotlib.axis_2">
    <g id="ytick_1">
     <g id="line2d_7">
      <defs>
       <path id="m178f1b7877" d="M 0 0 
L -3.5 0 
" style="stroke: #000000; stroke-width: 0.8"/>
      </defs>
      <g>
       <use xlink:href="#m178f1b7877" x="90" y="512.64" style="stroke: #000000; stroke-width: 0.8"/>
      </g>
     </g>
     <g id="text_8">
      <!-- 0.0 -->
      <g transform="translate(54.374375 519.478594) scale(0.18 -0.18)">
       <use xlink:href="#DejaVuSans-30"/>
       <use xlink:href="#DejaVuSans-2e" x="63.623047"/>
       <use xlink:href="#DejaVuSans-30" x="95.410156"/>
      </g>
     </g>
    </g>
    <g id="ytick_2">
     <g id="line2d_8">
      <g>
       <use xlink:href="#m178f1b7877" x="90" y="423.936" style="stroke: #000000; stroke-width: 0.8"/>
      </g>
     </g>
     <g id="text_9">
      <!-- 0.2 -->
      <g transform="translate(54.374375 430.774594) scale(0.18 -0.18)">
       <use xlink:href="#DejaVuSans-30"/>
       <use xlink:href="#DejaVuSans-2e" x="63.623047"/>
       <use xlink:href="#DejaVuSans-32" x="95.410156"/>
      </g>
     </g>
    </g>
    <g id="ytick_3">
     <g id="line2d_9">
      <g>
       <use xlink:href="#m178f1b7877" x="90" y="335.232" style="stroke: #000000; stroke-width: 0.8"/>
      </g>
     </g>
     <g id="text_10">
      <!-- 0.4 -->
      <g transform="translate(54.374375 342.070594) scale(0.18 -0.18)">
       <use xlink:href="#DejaVuSans-30"/>
       <use xlink:href="#DejaVuSans-2e" x="63.623047"/>
       <use xlink:href="#DejaVuSans-34" x="95.410156"/>
      </g>
     </g>
    </g>
    <g id="ytick_4">
     <g id="line2d_10">
      <g>
       <use xlink:href="#m178f1b7877" x="90" y="246.528" style="stroke: #000000; stroke-width: 0.8"/>
      </g>
     </g>
     <g id="text_11">
      <!-- 0.6 -->
      <g transform="translate(54.374375 253.366594) scale(0.18 -0.18)">
       <use xlink:href="#DejaVuSans-30"/>
       <use xlink:href="#DejaVuSans-2e" x="63.623047"/>
       <use xlink:href="#DejaVuSans-36" x="95.410156"/>
      </g>
     </g>
    </g>
    <g id="ytick_5">
     <g id="line2d_11">
      <g>
       <use xlink:href="#m178f1b7877" x="90" y="157.824" style="stroke: #000000; stroke-width: 0.8"/>
      </g>
     </g>
     <g id="text_12">
      <!-- 0.8 -->
      <g transform="translate(54.374375 164.662594) scale(0.18 -0.18)">
       <use xlink:href="#DejaVuSans-30"/>
       <use xlink:href="#DejaVuSans-2e" x="63.623047"/>
       <use xlink:href="#DejaVuSans-38" x="95.410156"/>
      </g>
     </g>
    </g>
    <g id="ytick_6">
     <g id="line2d_12">
      <g>
       <use xlink:href="#m178f1b7877" x="90" y="69.12" style="stroke: #000000; stroke-width: 0.8"/>
      </g>
     </g>
     <g id="text_13">
      <!-- 1.0 -->
      <g transform="translate(54.374375 75.958594) scale(0.18 -0.18)">
       <use xlink:href="#DejaVuSans-31"/>
       <use xlink:href="#DejaVuSans-2e" x="63.623047"/>
       <use xlink:href="#DejaVuSans-30" x="95.410156"/>
      </g>
     </g>
    </g>
    <g id="text_14">
     <!-- True Positive Rate -->
     <g transform="translate(46.630938 371.033437) rotate(-90) scale(0.18 -0.18)">
      <defs>
       <path id="DejaVuSans-54" d="M -19 4666 
L 3928 4666 
L 3928 4134 
L 2272 4134 
L 2272 0 
L 1638 0 
L 1638 4134 
L -19 4134 
L -19 4666 
z
" transform="scale(0.015625)"/>
       <path id="DejaVuSans-72" d="M 2631 2963 
Q 2534 3019 2420 3045 
Q 2306 3072 2169 3072 
Q 1681 3072 1420 2755 
Q 1159 2438 1159 1844 
L 1159 0 
L 581 0 
L 581 3500 
L 1159 3500 
L 1159 2956 
Q 1341 3275 1631 3429 
Q 1922 3584 2338 3584 
Q 2397 3584 2469 3576 
Q 2541 3569 2628 3553 
L 2631 2963 
z
" transform="scale(0.015625)"/>
       <path id="DejaVuSans-75" d="M 544 1381 
L 544 3500 
L 1119 3500 
L 1119 1403 
Q 1119 906 1312 657 
Q 1506 409 1894 409 
Q 2359 409 2629 706 
Q 2900 1003 2900 1516 
L 2900 3500 
L 3475 3500 
L 3475 0 
L 2900 0 
L 2900 538 
Q 2691 219 2414 64 
Q 2138 -91 1772 -91 
Q 1169 -91 856 284 
Q 544 659 544 1381 
z
M 1991 3584 
L 1991 3584 
z
" transform="scale(0.015625)"/>
      </defs>
      <use xlink:href="#DejaVuSans-54"/>
      <use xlink:href="#DejaVuSans-72" x="46.333984"/>
      <use xlink:href="#DejaVuSans-75" x="87.447266"/>
      <use xlink:href="#DejaVuSans-65" x="150.826172"/>
      <use xlink:href="#DejaVuSans-20" x="212.349609"/>
      <use xlink:href="#DejaVuSans-50" x="244.136719"/>
      <use xlink:href="#DejaVuSans-6f" x="300.814453"/>
      <use xlink:href="#DejaVuSans-73" x="361.996094"/>
      <use xlink:href="#DejaVuSans-69" x="414.095703"/>
      <use xlink:href="#DejaVuSans-74" x="441.878906"/>
      <use xlink:href="#DejaVuSans-69" x="481.087891"/>
      <use xlink:href="#DejaVuSans-76" x="508.871094"/>
      <use xlink:href="#DejaVuSans-65" x="568.050781"/>
      <use xlink:href="#DejaVuSans-20" x="629.574219"/>
      <use xlink:href="#DejaVuSans-52" x="661.361328"/>
      <use xlink:href="#DejaVuSans-61" x="728.59375"/>
      <use xlink:href="#DejaVuSans-74" x="789.873047"/>
      <use xlink:href="#DejaVuSans-65" x="829.082031"/>
     </g>
    </g>
   </g>
   <g id="line2d_13">
    <path d="M 90 512.64 
L 90 506.953846 
L 90 478.523077 
L 90 467.150769 
L 90 387.544615 
L 90 376.172308 
L 92.776119 376.172308 
L 92.776119 347.741538 
L 95.552239 347.741538 
L 95.552239 342.055385 
L 98.328358 342.055385 
L 98.328358 319.310769 
L 101.104478 319.310769 
L 101.104478 302.252308 
L 101.104478 290.88 
L 103.880597 290.88 
L 103.880597 279.507692 
L 109.432836 279.507692 
L 109.432836 268.135385 
L 112.208955 268.135385 
L 112.208955 256.763077 
L 117.761194 256.763077 
L 117.761194 245.390769 
L 131.641791 245.390769 
L 131.641791 239.704615 
L 134.41791 239.704615 
L 134.41791 228.332308 
L 139.970149 228.332308 
L 139.970149 222.646154 
L 142.746269 222.646154 
L 142.746269 216.96 
L 164.955224 216.96 
L 164.955224 205.587692 
L 192.716418 205.587692 
L 192.716418 199.901538 
L 198.268657 199.901538 
L 198.268657 194.215385 
L 206.597015 194.215385 
L 212.149254 194.215385 
L 212.149254 188.529231 
L 214.925373 188.529231 
L 214.925373 182.843077 
L 231.58209 182.843077 
L 231.58209 177.156923 
L 251.014925 177.156923 
L 251.014925 171.470769 
L 267.671642 171.470769 
L 267.671642 165.784615 
L 278.776119 165.784615 
L 278.776119 160.098462 
L 289.880597 160.098462 
L 289.880597 154.412308 
L 300.985075 154.412308 
L 300.985075 148.726154 
L 328.746269 148.726154 
L 328.746269 143.04 
L 334.298507 143.04 
L 334.298507 131.667692 
L 342.626866 131.667692 
L 345.402985 125.981538 
L 348.179104 125.981538 
L 353.731343 125.981538 
L 356.507463 125.981538 
L 359.283582 120.295385 
L 359.283582 114.609231 
L 364.835821 114.609231 
L 364.835821 108.923077 
L 387.044776 108.923077 
L 392.597015 108.923077 
L 406.477612 108.923077 
L 412.029851 108.923077 
L 428.686567 108.923077 
L 434.238806 108.923077 
L 442.567164 108.923077 
L 442.567164 103.236923 
L 445.343284 103.236923 
L 445.343284 97.550769 
L 450.895522 97.550769 
L 462 97.550769 
L 464.776119 97.550769 
L 470.328358 97.550769 
L 484.208955 97.550769 
L 484.208955 91.864615 
L 495.313433 91.864615 
L 500.865672 91.864615 
L 506.41791 91.864615 
L 511.970149 91.864615 
L 517.522388 91.864615 
L 517.522388 86.178462 
L 523.074627 86.178462 
L 528.626866 86.178462 
L 534.179104 86.178462 
L 556.38806 86.178462 
L 561.940299 86.178462 
L 592.477612 86.178462 
L 592.477612 74.806154 
L 623.014925 74.806154 
L 623.014925 69.12 
L 628.567164 69.12 
L 631.343284 69.12 
L 636.895522 69.12 
L 648 69.12 
" clip-path="url(#pb130fcb60f)" style="fill: none; stroke: #1f77b4; stroke-width: 2; stroke-linecap: square"/>
   </g>
   <g id="line2d_14">
    <path d="M 90 512.64 
L 90 506.953846 
L 90 484.209231 
L 92.776119 484.209231 
L 92.776119 433.033846 
L 95.552239 433.033846 
L 95.552239 427.347692 
L 98.328358 427.347692 
L 98.328358 421.661538 
L 101.104478 421.661538 
L 101.104478 415.975385 
L 103.880597 415.975385 
L 103.880597 410.289231 
L 106.656716 410.289231 
L 106.656716 404.603077 
L 109.432836 404.603077 
L 109.432836 370.486154 
L 120.537313 370.486154 
L 120.537313 364.8 
L 131.641791 364.8 
L 131.641791 359.113846 
L 139.970149 359.113846 
L 139.970149 353.427692 
L 145.522388 353.427692 
L 145.522388 342.055385 
L 148.298507 342.055385 
L 148.298507 336.369231 
L 164.955224 336.369231 
L 164.955224 330.683077 
L 170.507463 330.683077 
L 170.507463 319.310769 
L 192.716418 319.310769 
L 192.716418 313.624615 
L 203.820896 313.624615 
L 203.820896 302.252308 
L 214.925373 302.252308 
L 214.925373 296.566154 
L 220.477612 296.566154 
L 220.477612 290.88 
L 228.80597 290.88 
L 234.358209 290.88 
L 237.134328 290.88 
L 237.134328 285.193846 
L 242.686567 285.193846 
L 242.686567 279.507692 
L 256.567164 279.507692 
L 256.567164 273.821538 
L 273.223881 273.821538 
L 273.223881 268.135385 
L 276 268.135385 
L 276 262.449231 
L 287.104478 262.449231 
L 287.104478 256.763077 
L 298.208955 256.763077 
L 298.208955 245.390769 
L 312.089552 245.390769 
L 312.089552 239.704615 
L 331.522388 239.704615 
L 331.522388 228.332308 
L 331.522388 211.273846 
L 337.074627 211.273846 
L 337.074627 205.587692 
L 345.402985 205.587692 
L 345.402985 199.901538 
L 353.731343 199.901538 
L 353.731343 194.215385 
L 356.507463 194.215385 
L 356.507463 188.529231 
L 359.283582 188.529231 
L 359.283582 182.843077 
L 387.044776 182.843077 
L 387.044776 177.156923 
L 417.58209 177.156923 
L 417.58209 171.470769 
L 423.134328 171.470769 
L 423.134328 160.098462 
L 428.686567 160.098462 
L 428.686567 154.412308 
L 445.343284 154.412308 
L 445.343284 148.726154 
L 478.656716 148.726154 
L 478.656716 143.04 
L 489.761194 143.04 
L 489.761194 137.353846 
L 509.19403 137.353846 
L 509.19403 131.667692 
L 539.731343 131.667692 
L 539.731343 125.981538 
L 548.059701 125.981538 
L 548.059701 114.609231 
L 559.164179 114.609231 
L 559.164179 108.923077 
L 561.940299 108.923077 
L 561.940299 103.236923 
L 581.373134 103.236923 
L 581.373134 97.550769 
L 584.149254 97.550769 
L 584.149254 91.864615 
L 592.477612 91.864615 
L 592.477612 86.178462 
L 606.358209 86.178462 
L 606.358209 80.492308 
L 623.014925 80.492308 
L 623.014925 69.12 
L 642.447761 69.12 
L 648 69.12 
" clip-path="url(#pb130fcb60f)" style="fill: none; stroke: #ff7f0e; stroke-width: 2; stroke-linecap: square"/>
   </g>
   <g id="line2d_15">
    <path d="M 90 512.64 
L 90 506.953846 
L 90 444.406154 
L 95.552239 444.406154 
L 95.552239 433.033846 
L 98.328358 433.033846 
L 98.328358 421.661538 
L 101.104478 421.661538 
L 101.104478 415.975385 
L 103.880597 415.975385 
L 103.880597 410.289231 
L 112.208955 410.289231 
L 112.208955 404.603077 
L 123.313433 404.603077 
L 123.313433 381.858462 
L 126.089552 381.858462 
L 126.089552 364.8 
L 126.089552 353.427692 
L 134.41791 353.427692 
L 134.41791 347.741538 
L 137.19403 347.741538 
L 137.19403 336.369231 
L 145.522388 336.369231 
L 145.522388 330.683077 
L 159.402985 330.683077 
L 159.402985 324.996923 
L 192.716418 324.996923 
L 192.716418 319.310769 
L 195.492537 319.310769 
L 195.492537 313.624615 
L 198.268657 313.624615 
L 198.268657 302.252308 
L 220.477612 302.252308 
L 220.477612 290.88 
L 245.462687 290.88 
L 245.462687 285.193846 
L 248.238806 285.193846 
L 248.238806 279.507692 
L 264.895522 279.507692 
L 264.895522 273.821538 
L 306.537313 273.821538 
L 306.537313 268.135385 
L 323.19403 268.135385 
L 323.19403 262.449231 
L 339.850746 262.449231 
L 345.402985 262.449231 
L 370.38806 262.449231 
L 370.38806 251.076923 
L 409.253731 251.076923 
L 409.253731 228.332308 
L 417.58209 228.332308 
L 423.134328 228.332308 
L 423.134328 222.646154 
L 431.462687 222.646154 
L 431.462687 211.273846 
L 437.014925 211.273846 
L 437.014925 205.587692 
L 439.791045 205.587692 
L 439.791045 199.901538 
L 450.895522 199.901538 
L 450.895522 182.843077 
L 462 182.843077 
L 462 177.156923 
L 464.776119 177.156923 
L 464.776119 165.784615 
L 467.552239 165.784615 
L 467.552239 160.098462 
L 486.985075 160.098462 
L 486.985075 154.412308 
L 492.537313 154.412308 
L 492.537313 143.04 
L 506.41791 143.04 
L 506.41791 137.353846 
L 511.970149 137.353846 
L 511.970149 131.667692 
L 531.402985 131.667692 
L 531.402985 125.981538 
L 542.507463 125.981538 
L 542.507463 120.295385 
L 553.61194 120.295385 
L 553.61194 108.923077 
L 559.164179 108.923077 
L 559.164179 103.236923 
L 561.940299 103.236923 
L 561.940299 91.864615 
L 586.925373 91.864615 
L 586.925373 80.492308 
L 609.134328 80.492308 
L 609.134328 74.806154 
L 625.791045 74.806154 
L 625.791045 69.12 
L 648 69.12 
" clip-path="url(#pb130fcb60f)" style="fill: none; stroke: #2ca02c; stroke-width: 2; stroke-linecap: square"/>
   </g>
   <g id="line2d_16">
    <path d="M 90 512.64 
L 648 69.12 
" clip-path="url(#pb130fcb60f)" style="fill: none; stroke-dasharray: 7.4,3.2; stroke-dashoffset: 0; stroke: #000000; stroke-width: 2"/>
   </g>
   <g id="patch_3">
    <path d="M 90 512.64 
L 90 69.12 
" style="fill: none; stroke: #000000; stroke-width: 0.8; stroke-linejoin: miter; stroke-linecap: square"/>
   </g>
   <g id="patch_4">
    <path d="M 648 512.64 
L 648 69.12 
" style="fill: none; stroke: #000000; stroke-width: 0.8; stroke-linejoin: miter; stroke-linecap: square"/>
   </g>
   <g id="patch_5">
    <path d="M 90 512.64 
L 648 512.64 
" style="fill: none; stroke: #000000; stroke-width: 0.8; stroke-linejoin: miter; stroke-linecap: square"/>
   </g>
   <g id="patch_6">
    <path d="M 90 69.12 
L 648 69.12 
" style="fill: none; stroke: #000000; stroke-width: 0.8; stroke-linejoin: miter; stroke-linecap: square"/>
   </g>
   <g id="text_15">
    <!-- IDR located substitutions - ROC -->
    <g transform="translate(199.340438 63.12) scale(0.216 -0.216)">
     <defs>
      <path id="DejaVuSans-49" d="M 628 4666 
L 1259 4666 
L 1259 0 
L 628 0 
L 628 4666 
z
" transform="scale(0.015625)"/>
      <path id="DejaVuSans-44" d="M 1259 4147 
L 1259 519 
L 2022 519 
Q 2988 519 3436 956 
Q 3884 1394 3884 2338 
Q 3884 3275 3436 3711 
Q 2988 4147 2022 4147 
L 1259 4147 
z
M 628 4666 
L 1925 4666 
Q 3281 4666 3915 4102 
Q 4550 3538 4550 2338 
Q 4550 1131 3912 565 
Q 3275 0 1925 0 
L 628 0 
L 628 4666 
z
" transform="scale(0.015625)"/>
      <path id="DejaVuSans-63" d="M 3122 3366 
L 3122 2828 
Q 2878 2963 2633 3030 
Q 2388 3097 2138 3097 
Q 1578 3097 1268 2742 
Q 959 2388 959 1747 
Q 959 1106 1268 751 
Q 1578 397 2138 397 
Q 2388 397 2633 464 
Q 2878 531 3122 666 
L 3122 134 
Q 2881 22 2623 -34 
Q 2366 -91 2075 -91 
Q 1284 -91 818 406 
Q 353 903 353 1747 
Q 353 2603 823 3093 
Q 1294 3584 2113 3584 
Q 2378 3584 2631 3529 
Q 2884 3475 3122 3366 
z
" transform="scale(0.015625)"/>
      <path id="DejaVuSans-64" d="M 2906 2969 
L 2906 4863 
L 3481 4863 
L 3481 0 
L 2906 0 
L 2906 525 
Q 2725 213 2448 61 
Q 2172 -91 1784 -91 
Q 1150 -91 751 415 
Q 353 922 353 1747 
Q 353 2572 751 3078 
Q 1150 3584 1784 3584 
Q 2172 3584 2448 3432 
Q 2725 3281 2906 2969 
z
M 947 1747 
Q 947 1113 1208 752 
Q 1469 391 1925 391 
Q 2381 391 2643 752 
Q 2906 1113 2906 1747 
Q 2906 2381 2643 2742 
Q 2381 3103 1925 3103 
Q 1469 3103 1208 2742 
Q 947 2381 947 1747 
z
" transform="scale(0.015625)"/>
      <path id="DejaVuSans-62" d="M 3116 1747 
Q 3116 2381 2855 2742 
Q 2594 3103 2138 3103 
Q 1681 3103 1420 2742 
Q 1159 2381 1159 1747 
Q 1159 1113 1420 752 
Q 1681 391 2138 391 
Q 2594 391 2855 752 
Q 3116 1113 3116 1747 
z
M 1159 2969 
Q 1341 3281 1617 3432 
Q 1894 3584 2278 3584 
Q 2916 3584 3314 3078 
Q 3713 2572 3713 1747 
Q 3713 922 3314 415 
Q 2916 -91 2278 -91 
Q 1894 -91 1617 61 
Q 1341 213 1159 525 
L 1159 0 
L 581 0 
L 581 4863 
L 1159 4863 
L 1159 2969 
z
" transform="scale(0.015625)"/>
      <path id="DejaVuSans-6e" d="M 3513 2113 
L 3513 0 
L 2938 0 
L 2938 2094 
Q 2938 2591 2744 2837 
Q 2550 3084 2163 3084 
Q 1697 3084 1428 2787 
Q 1159 2491 1159 1978 
L 1159 0 
L 581 0 
L 581 3500 
L 1159 3500 
L 1159 2956 
Q 1366 3272 1645 3428 
Q 1925 3584 2291 3584 
Q 2894 3584 3203 3211 
Q 3513 2838 3513 2113 
z
" transform="scale(0.015625)"/>
      <path id="DejaVuSans-2d" d="M 313 2009 
L 1997 2009 
L 1997 1497 
L 313 1497 
L 313 2009 
z
" transform="scale(0.015625)"/>
      <path id="DejaVuSans-4f" d="M 2522 4238 
Q 1834 4238 1429 3725 
Q 1025 3213 1025 2328 
Q 1025 1447 1429 934 
Q 1834 422 2522 422 
Q 3209 422 3611 934 
Q 4013 1447 4013 2328 
Q 4013 3213 3611 3725 
Q 3209 4238 2522 4238 
z
M 2522 4750 
Q 3503 4750 4090 4092 
Q 4678 3434 4678 2328 
Q 4678 1225 4090 567 
Q 3503 -91 2522 -91 
Q 1538 -91 948 565 
Q 359 1222 359 2328 
Q 359 3434 948 4092 
Q 1538 4750 2522 4750 
z
" transform="scale(0.015625)"/>
      <path id="DejaVuSans-43" d="M 4122 4306 
L 4122 3641 
Q 3803 3938 3442 4084 
Q 3081 4231 2675 4231 
Q 1875 4231 1450 3742 
Q 1025 3253 1025 2328 
Q 1025 1406 1450 917 
Q 1875 428 2675 428 
Q 3081 428 3442 575 
Q 3803 722 4122 1019 
L 4122 359 
Q 3791 134 3420 21 
Q 3050 -91 2638 -91 
Q 1578 -91 968 557 
Q 359 1206 359 2328 
Q 359 3453 968 4101 
Q 1578 4750 2638 4750 
Q 3056 4750 3426 4639 
Q 3797 4528 4122 4306 
z
" transform="scale(0.015625)"/>
     </defs>
     <use xlink:href="#DejaVuSans-49"/>
     <use xlink:href="#DejaVuSans-44" x="29.492188"/>
     <use xlink:href="#DejaVuSans-52" x="106.494141"/>
     <use xlink:href="#DejaVuSans-20" x="175.976562"/>
     <use xlink:href="#DejaVuSans-6c" x="207.763672"/>
     <use xlink:href="#DejaVuSans-6f" x="235.546875"/>
     <use xlink:href="#DejaVuSans-63" x="296.728516"/>
     <use xlink:href="#DejaVuSans-61" x="351.708984"/>
     <use xlink:href="#DejaVuSans-74" x="412.988281"/>
     <use xlink:href="#DejaVuSans-65" x="452.197266"/>
     <use xlink:href="#DejaVuSans-64" x="513.720703"/>
     <use xlink:href="#DejaVuSans-20" x="577.197266"/>
     <use xlink:href="#DejaVuSans-73" x="608.984375"/>
     <use xlink:href="#DejaVuSans-75" x="661.083984"/>
     <use xlink:href="#DejaVuSans-62" x="724.462891"/>
     <use xlink:href="#DejaVuSans-73" x="787.939453"/>
     <use xlink:href="#DejaVuSans-74" x="840.039062"/>
     <use xlink:href="#DejaVuSans-69" x="879.248047"/>
     <use xlink:href="#DejaVuSans-74" x="907.03125"/>
     <use xlink:href="#DejaVuSans-75" x="946.240234"/>
     <use xlink:href="#DejaVuSans-74" x="1009.619141"/>
     <use xlink:href="#DejaVuSans-69" x="1048.828125"/>
     <use xlink:href="#DejaVuSans-6f" x="1076.611328"/>
     <use xlink:href="#DejaVuSans-6e" x="1137.792969"/>
     <use xlink:href="#DejaVuSans-73" x="1201.171875"/>
     <use xlink:href="#DejaVuSans-20" x="1253.271484"/>
     <use xlink:href="#DejaVuSans-2d" x="1285.058594"/>
     <use xlink:href="#DejaVuSans-20" x="1321.142578"/>
     <use xlink:href="#DejaVuSans-52" x="1352.929688"/>
     <use xlink:href="#DejaVuSans-4f" x="1422.412109"/>
     <use xlink:href="#DejaVuSans-43" x="1501.123047"/>
    </g>
   </g>
   <g id="legend_1">
    <g id="patch_7">
     <path d="M 223.6275 503.64 
L 635.4 503.64 
Q 639 503.64 639 500.04 
L 639 422.578125 
Q 639 418.978125 635.4 418.978125 
L 223.6275 418.978125 
Q 220.0275 418.978125 220.0275 422.578125 
L 220.0275 500.04 
Q 220.0275 503.64 223.6275 503.64 
z
" style="fill: #ffffff; opacity: 0.8; stroke: #cccccc; stroke-linejoin: miter"/>
    </g>
    <g id="line2d_17">
     <path d="M 227.2275 433.555313 
L 245.2275 433.555313 
L 263.2275 433.555313 
" style="fill: none; stroke: #1f77b4; stroke-width: 2; stroke-linecap: square"/>
    </g>
    <g id="text_16">
     <!-- AM Pathogenicity (AUC = 0.838) -->
     <g transform="translate(277.6275 439.855313) scale(0.18 -0.18)">
      <defs>
       <path id="DejaVuSans-41" d="M 2188 4044 
L 1331 1722 
L 3047 1722 
L 2188 4044 
z
M 1831 4666 
L 2547 4666 
L 4325 0 
L 3669 0 
L 3244 1197 
L 1141 1197 
L 716 0 
L 50 0 
L 1831 4666 
z
" transform="scale(0.015625)"/>
       <path id="DejaVuSans-4d" d="M 628 4666 
L 1569 4666 
L 2759 1491 
L 3956 4666 
L 4897 4666 
L 4897 0 
L 4281 0 
L 4281 4097 
L 3078 897 
L 2444 897 
L 1241 4097 
L 1241 0 
L 628 0 
L 628 4666 
z
" transform="scale(0.015625)"/>
       <path id="DejaVuSans-68" d="M 3513 2113 
L 3513 0 
L 2938 0 
L 2938 2094 
Q 2938 2591 2744 2837 
Q 2550 3084 2163 3084 
Q 1697 3084 1428 2787 
Q 1159 2491 1159 1978 
L 1159 0 
L 581 0 
L 581 4863 
L 1159 4863 
L 1159 2956 
Q 1366 3272 1645 3428 
Q 1925 3584 2291 3584 
Q 2894 3584 3203 3211 
Q 3513 2838 3513 2113 
z
" transform="scale(0.015625)"/>
       <path id="DejaVuSans-67" d="M 2906 1791 
Q 2906 2416 2648 2759 
Q 2391 3103 1925 3103 
Q 1463 3103 1205 2759 
Q 947 2416 947 1791 
Q 947 1169 1205 825 
Q 1463 481 1925 481 
Q 2391 481 2648 825 
Q 2906 1169 2906 1791 
z
M 3481 434 
Q 3481 -459 3084 -895 
Q 2688 -1331 1869 -1331 
Q 1566 -1331 1297 -1286 
Q 1028 -1241 775 -1147 
L 775 -588 
Q 1028 -725 1275 -790 
Q 1522 -856 1778 -856 
Q 2344 -856 2625 -561 
Q 2906 -266 2906 331 
L 2906 616 
Q 2728 306 2450 153 
Q 2172 0 1784 0 
Q 1141 0 747 490 
Q 353 981 353 1791 
Q 353 2603 747 3093 
Q 1141 3584 1784 3584 
Q 2172 3584 2450 3431 
Q 2728 3278 2906 2969 
L 2906 3500 
L 3481 3500 
L 3481 434 
z
" transform="scale(0.015625)"/>
       <path id="DejaVuSans-79" d="M 2059 -325 
Q 1816 -950 1584 -1140 
Q 1353 -1331 966 -1331 
L 506 -1331 
L 506 -850 
L 844 -850 
Q 1081 -850 1212 -737 
Q 1344 -625 1503 -206 
L 1606 56 
L 191 3500 
L 800 3500 
L 1894 763 
L 2988 3500 
L 3597 3500 
L 2059 -325 
z
" transform="scale(0.015625)"/>
       <path id="DejaVuSans-28" d="M 1984 4856 
Q 1566 4138 1362 3434 
Q 1159 2731 1159 2009 
Q 1159 1288 1364 580 
Q 1569 -128 1984 -844 
L 1484 -844 
Q 1016 -109 783 600 
Q 550 1309 550 2009 
Q 550 2706 781 3412 
Q 1013 4119 1484 4856 
L 1984 4856 
z
" transform="scale(0.015625)"/>
       <path id="DejaVuSans-55" d="M 556 4666 
L 1191 4666 
L 1191 1831 
Q 1191 1081 1462 751 
Q 1734 422 2344 422 
Q 2950 422 3222 751 
Q 3494 1081 3494 1831 
L 3494 4666 
L 4128 4666 
L 4128 1753 
Q 4128 841 3676 375 
Q 3225 -91 2344 -91 
Q 1459 -91 1007 375 
Q 556 841 556 1753 
L 556 4666 
z
" transform="scale(0.015625)"/>
       <path id="DejaVuSans-3d" d="M 678 2906 
L 4684 2906 
L 4684 2381 
L 678 2381 
L 678 2906 
z
M 678 1631 
L 4684 1631 
L 4684 1100 
L 678 1100 
L 678 1631 
z
" transform="scale(0.015625)"/>
       <path id="DejaVuSans-33" d="M 2597 2516 
Q 3050 2419 3304 2112 
Q 3559 1806 3559 1356 
Q 3559 666 3084 287 
Q 2609 -91 1734 -91 
Q 1441 -91 1130 -33 
Q 819 25 488 141 
L 488 750 
Q 750 597 1062 519 
Q 1375 441 1716 441 
Q 2309 441 2620 675 
Q 2931 909 2931 1356 
Q 2931 1769 2642 2001 
Q 2353 2234 1838 2234 
L 1294 2234 
L 1294 2753 
L 1863 2753 
Q 2328 2753 2575 2939 
Q 2822 3125 2822 3475 
Q 2822 3834 2567 4026 
Q 2313 4219 1838 4219 
Q 1578 4219 1281 4162 
Q 984 4106 628 3988 
L 628 4550 
Q 988 4650 1302 4700 
Q 1616 4750 1894 4750 
Q 2613 4750 3031 4423 
Q 3450 4097 3450 3541 
Q 3450 3153 3228 2886 
Q 3006 2619 2597 2516 
z
" transform="scale(0.015625)"/>
       <path id="DejaVuSans-29" d="M 513 4856 
L 1013 4856 
Q 1481 4119 1714 3412 
Q 1947 2706 1947 2009 
Q 1947 1309 1714 600 
Q 1481 -109 1013 -844 
L 513 -844 
Q 928 -128 1133 580 
Q 1338 1288 1338 2009 
Q 1338 2731 1133 3434 
Q 928 4138 513 4856 
z
" transform="scale(0.015625)"/>
      </defs>
      <use xlink:href="#DejaVuSans-41"/>
      <use xlink:href="#DejaVuSans-4d" x="68.408203"/>
      <use xlink:href="#DejaVuSans-20" x="154.6875"/>
      <use xlink:href="#DejaVuSans-50" x="186.474609"/>
      <use xlink:href="#DejaVuSans-61" x="242.277344"/>
      <use xlink:href="#DejaVuSans-74" x="303.556641"/>
      <use xlink:href="#DejaVuSans-68" x="342.765625"/>
      <use xlink:href="#DejaVuSans-6f" x="406.144531"/>
      <use xlink:href="#DejaVuSans-67" x="467.326172"/>
      <use xlink:href="#DejaVuSans-65" x="530.802734"/>
      <use xlink:href="#DejaVuSans-6e" x="592.326172"/>
      <use xlink:href="#DejaVuSans-69" x="655.705078"/>
      <use xlink:href="#DejaVuSans-63" x="683.488281"/>
      <use xlink:href="#DejaVuSans-69" x="738.46875"/>
      <use xlink:href="#DejaVuSans-74" x="766.251953"/>
      <use xlink:href="#DejaVuSans-79" x="805.460938"/>
      <use xlink:href="#DejaVuSans-20" x="864.640625"/>
      <use xlink:href="#DejaVuSans-28" x="896.427734"/>
      <use xlink:href="#DejaVuSans-41" x="935.441406"/>
      <use xlink:href="#DejaVuSans-55" x="1003.849609"/>
      <use xlink:href="#DejaVuSans-43" x="1077.042969"/>
      <use xlink:href="#DejaVuSans-20" x="1146.867188"/>
      <use xlink:href="#DejaVuSans-3d" x="1178.654297"/>
      <use xlink:href="#DejaVuSans-20" x="1262.443359"/>
      <use xlink:href="#DejaVuSans-30" x="1294.230469"/>
      <use xlink:href="#DejaVuSans-2e" x="1357.853516"/>
      <use xlink:href="#DejaVuSans-38" x="1389.640625"/>
      <use xlink:href="#DejaVuSans-33" x="1453.263672"/>
      <use xlink:href="#DejaVuSans-38" x="1516.886719"/>
      <use xlink:href="#DejaVuSans-29" x="1580.509766"/>
     </g>
    </g>
    <g id="line2d_18">
     <path d="M 227.2275 459.975938 
L 245.2275 459.975938 
L 263.2275 459.975938 
" style="fill: none; stroke: #ff7f0e; stroke-width: 2; stroke-linecap: square"/>
    </g>
    <g id="text_17">
     <!-- ESM-1b Cosine Distance (AUC = 0.677) -->
     <g transform="translate(277.6275 466.275938) scale(0.18 -0.18)">
      <defs>
       <path id="DejaVuSans-45" d="M 628 4666 
L 3578 4666 
L 3578 4134 
L 1259 4134 
L 1259 2753 
L 3481 2753 
L 3481 2222 
L 1259 2222 
L 1259 531 
L 3634 531 
L 3634 0 
L 628 0 
L 628 4666 
z
" transform="scale(0.015625)"/>
       <path id="DejaVuSans-53" d="M 3425 4513 
L 3425 3897 
Q 3066 4069 2747 4153 
Q 2428 4238 2131 4238 
Q 1616 4238 1336 4038 
Q 1056 3838 1056 3469 
Q 1056 3159 1242 3001 
Q 1428 2844 1947 2747 
L 2328 2669 
Q 3034 2534 3370 2195 
Q 3706 1856 3706 1288 
Q 3706 609 3251 259 
Q 2797 -91 1919 -91 
Q 1588 -91 1214 -16 
Q 841 59 441 206 
L 441 856 
Q 825 641 1194 531 
Q 1563 422 1919 422 
Q 2459 422 2753 634 
Q 3047 847 3047 1241 
Q 3047 1584 2836 1778 
Q 2625 1972 2144 2069 
L 1759 2144 
Q 1053 2284 737 2584 
Q 422 2884 422 3419 
Q 422 4038 858 4394 
Q 1294 4750 2059 4750 
Q 2388 4750 2728 4690 
Q 3069 4631 3425 4513 
z
" transform="scale(0.015625)"/>
       <path id="DejaVuSans-37" d="M 525 4666 
L 3525 4666 
L 3525 4397 
L 1831 0 
L 1172 0 
L 2766 4134 
L 525 4134 
L 525 4666 
z
" transform="scale(0.015625)"/>
      </defs>
      <use xlink:href="#DejaVuSans-45"/>
      <use xlink:href="#DejaVuSans-53" x="63.183594"/>
      <use xlink:href="#DejaVuSans-4d" x="126.660156"/>
      <use xlink:href="#DejaVuSans-2d" x="212.939453"/>
      <use xlink:href="#DejaVuSans-31" x="249.023438"/>
      <use xlink:href="#DejaVuSans-62" x="312.646484"/>
      <use xlink:href="#DejaVuSans-20" x="376.123047"/>
      <use xlink:href="#DejaVuSans-43" x="407.910156"/>
      <use xlink:href="#DejaVuSans-6f" x="477.734375"/>
      <use xlink:href="#DejaVuSans-73" x="538.916016"/>
      <use xlink:href="#DejaVuSans-69" x="591.015625"/>
      <use xlink:href="#DejaVuSans-6e" x="618.798828"/>
      <use xlink:href="#DejaVuSans-65" x="682.177734"/>
      <use xlink:href="#DejaVuSans-20" x="743.701172"/>
      <use xlink:href="#DejaVuSans-44" x="775.488281"/>
      <use xlink:href="#DejaVuSans-69" x="852.490234"/>
      <use xlink:href="#DejaVuSans-73" x="880.273438"/>
      <use xlink:href="#DejaVuSans-74" x="932.373047"/>
      <use xlink:href="#DejaVuSans-61" x="971.582031"/>
      <use xlink:href="#DejaVuSans-6e" x="1032.861328"/>
      <use xlink:href="#DejaVuSans-63" x="1096.240234"/>
      <use xlink:href="#DejaVuSans-65" x="1151.220703"/>
      <use xlink:href="#DejaVuSans-20" x="1212.744141"/>
      <use xlink:href="#DejaVuSans-28" x="1244.53125"/>
      <use xlink:href="#DejaVuSans-41" x="1283.544922"/>
      <use xlink:href="#DejaVuSans-55" x="1351.953125"/>
      <use xlink:href="#DejaVuSans-43" x="1425.146484"/>
      <use xlink:href="#DejaVuSans-20" x="1494.970703"/>
      <use xlink:href="#DejaVuSans-3d" x="1526.757812"/>
      <use xlink:href="#DejaVuSans-20" x="1610.546875"/>
      <use xlink:href="#DejaVuSans-30" x="1642.333984"/>
      <use xlink:href="#DejaVuSans-2e" x="1705.957031"/>
      <use xlink:href="#DejaVuSans-36" x="1737.744141"/>
      <use xlink:href="#DejaVuSans-37" x="1801.367188"/>
      <use xlink:href="#DejaVuSans-37" x="1864.990234"/>
      <use xlink:href="#DejaVuSans-29" x="1928.613281"/>
     </g>
    </g>
    <g id="line2d_19">
     <path d="M 227.2275 486.396563 
L 245.2275 486.396563 
L 263.2275 486.396563 
" style="fill: none; stroke: #2ca02c; stroke-width: 2; stroke-linecap: square"/>
    </g>
    <g id="text_18">
     <!-- ESM-1v WT Marginals (AUC = 0.639) -->
     <g transform="translate(277.6275 492.696563) scale(0.18 -0.18)">
      <defs>
       <path id="DejaVuSans-57" d="M 213 4666 
L 850 4666 
L 1831 722 
L 2809 4666 
L 3519 4666 
L 4500 722 
L 5478 4666 
L 6119 4666 
L 4947 0 
L 4153 0 
L 3169 4050 
L 2175 0 
L 1381 0 
L 213 4666 
z
" transform="scale(0.015625)"/>
       <path id="DejaVuSans-39" d="M 703 97 
L 703 672 
Q 941 559 1184 500 
Q 1428 441 1663 441 
Q 2288 441 2617 861 
Q 2947 1281 2994 2138 
Q 2813 1869 2534 1725 
Q 2256 1581 1919 1581 
Q 1219 1581 811 2004 
Q 403 2428 403 3163 
Q 403 3881 828 4315 
Q 1253 4750 1959 4750 
Q 2769 4750 3195 4129 
Q 3622 3509 3622 2328 
Q 3622 1225 3098 567 
Q 2575 -91 1691 -91 
Q 1453 -91 1209 -44 
Q 966 3 703 97 
z
M 1959 2075 
Q 2384 2075 2632 2365 
Q 2881 2656 2881 3163 
Q 2881 3666 2632 3958 
Q 2384 4250 1959 4250 
Q 1534 4250 1286 3958 
Q 1038 3666 1038 3163 
Q 1038 2656 1286 2365 
Q 1534 2075 1959 2075 
z
" transform="scale(0.015625)"/>
      </defs>
      <use xlink:href="#DejaVuSans-45"/>
      <use xlink:href="#DejaVuSans-53" x="63.183594"/>
      <use xlink:href="#DejaVuSans-4d" x="126.660156"/>
      <use xlink:href="#DejaVuSans-2d" x="212.939453"/>
      <use xlink:href="#DejaVuSans-31" x="249.023438"/>
      <use xlink:href="#DejaVuSans-76" x="312.646484"/>
      <use xlink:href="#DejaVuSans-20" x="371.826172"/>
      <use xlink:href="#DejaVuSans-57" x="403.613281"/>
      <use xlink:href="#DejaVuSans-54" x="502.490234"/>
      <use xlink:href="#DejaVuSans-20" x="563.574219"/>
      <use xlink:href="#DejaVuSans-4d" x="595.361328"/>
      <use xlink:href="#DejaVuSans-61" x="681.640625"/>
      <use xlink:href="#DejaVuSans-72" x="742.919922"/>
      <use xlink:href="#DejaVuSans-67" x="782.283203"/>
      <use xlink:href="#DejaVuSans-69" x="845.759766"/>
      <use xlink:href="#DejaVuSans-6e" x="873.542969"/>
      <use xlink:href="#DejaVuSans-61" x="936.921875"/>
      <use xlink:href="#DejaVuSans-6c" x="998.201172"/>
      <use xlink:href="#DejaVuSans-73" x="1025.984375"/>
      <use xlink:href="#DejaVuSans-20" x="1078.083984"/>
      <use xlink:href="#DejaVuSans-28" x="1109.871094"/>
      <use xlink:href="#DejaVuSans-41" x="1148.884766"/>
      <use xlink:href="#DejaVuSans-55" x="1217.292969"/>
      <use xlink:href="#DejaVuSans-43" x="1290.486328"/>
      <use xlink:href="#DejaVuSans-20" x="1360.310547"/>
      <use xlink:href="#DejaVuSans-3d" x="1392.097656"/>
      <use xlink:href="#DejaVuSans-20" x="1475.886719"/>
      <use xlink:href="#DejaVuSans-30" x="1507.673828"/>
      <use xlink:href="#DejaVuSans-2e" x="1571.296875"/>
      <use xlink:href="#DejaVuSans-36" x="1603.083984"/>
      <use xlink:href="#DejaVuSans-33" x="1666.707031"/>
      <use xlink:href="#DejaVuSans-39" x="1730.330078"/>
      <use xlink:href="#DejaVuSans-29" x="1793.953125"/>
     </g>
    </g>
   </g>
  </g>
 </g>
 <defs>
  <clipPath id="pb130fcb60f">
   <rect x="90" y="69.12" width="558" height="443.52"/>
  </clipPath>
 </defs>
</svg>
